<svg id="visual" viewBox="0 0 900 600" width="900" height="600" xmlns="http://www.w3.org/2000/svg" xmlns:xlink="http://www.w3.org/1999/xlink" version="1.1"><g transform="translate(459.1484829132996 333.9646397124543)"><path d="M126.9 -203.9C166.7 -172 202.5 -140.4 215.7 -101.5C228.8 -62.5 219.3 -16.2 203.2 22.4C187.1 61 164.4 91.9 139.6 121.6C114.9 151.3 88 179.7 54.7 192.2C21.4 204.7 -18.3 201.2 -65.4 198.5C-112.5 195.7 -167 193.8 -200 167C-233.1 140.2 -244.7 88.5 -238.6 42.5C-232.5 -3.5 -208.6 -43.9 -188.4 -85.1C-168.2 -126.3 -151.7 -168.3 -120.9 -204.3C-90.1 -240.2 -45.1 -270.1 -0.7 -269C43.6 -267.9 87.2 -235.7 126.9 -203.9" fill="#f17b8f"></path></g></svg>