<svg id="visual" viewBox="0 0 900 600" width="900" height="600" xmlns="http://www.w3.org/2000/svg" xmlns:xlink="http://www.w3.org/1999/xlink" version="1.1"><g transform="translate(457.9152089164253 312.9598890904668)"><path d="M114.7 -191.1C148.7 -156.6 176.2 -124.8 195.9 -87.7C215.7 -50.6 227.6 -8.1 223.6 33.4C219.6 74.9 199.8 115.4 168.6 139.6C137.5 163.9 95.2 171.9 52.1 190.4C9.1 208.9 -34.6 237.8 -78.2 237.9C-121.7 238.1 -165.2 209.4 -194.8 171.1C-224.5 132.8 -240.4 84.8 -240.2 38.9C-240 -7 -223.7 -50.9 -201.8 -89.4C-179.9 -127.9 -152.4 -161.1 -117.8 -195.3C-83.3 -229.6 -41.6 -264.8 -0.6 -263.8C40.4 -262.8 80.7 -225.6 114.7 -191.1" fill="none" stroke="#f17b8f" stroke-width="6"></path></g></svg>